<svg role="img" aria-label="Wheat State Cleaning Logo" xmlns="http://www.w3.org/2000/svg" version="1.1" viewBox="0.00 0.00 500.00 500.00">
<g stroke-width="2.00" fill="none" stroke-linecap="butt">
<path stroke="#b1e3f1" vector-effect="non-scaling-stroke" d="
  M 385.96 39.13
  A 0.31 0.31 0.0 0 1 385.81 38.98
  L 381.33 29.34
  A 0.31 0.31 0.0 0 0 380.77 29.34
  L 376.29 38.98
  A 0.31 0.31 0.0 0 1 376.14 39.13
  L 366.50 43.61
  A 0.31 0.31 0.0 0 0 366.50 44.17
  L 376.14 48.65
  A 0.31 0.31 0.0 0 1 376.29 48.80
  L 380.77 58.44
  A 0.31 0.31 0.0 0 0 381.33 58.44
  L 385.81 48.80
  A 0.31 0.31 0.0 0 1 385.96 48.65
  L 395.60 44.17
  A 0.31 0.31 0.0 0 0 395.60 43.61
  L 385.96 39.13"
/>
<path stroke="#bfecab" vector-effect="non-scaling-stroke" d="
  M 424.02 54.63
  Q 424.02 55.00 424.98 55.27
  Q 429.71 56.61 430.74 61.17
  A 0.46 0.46 0.0 0 0 431.63 61.21
  Q 433.37 56.09 438.44 54.95
  Q 438.61 54.91 438.61 54.62
  Q 438.61 54.33 438.44 54.29
  Q 433.37 53.15 431.62 48.04
  A 0.46 0.46 0.0 0 0 430.73 48.08
  Q 429.71 52.64 424.98 53.99
  Q 424.02 54.26 424.02 54.63"
/>
<path stroke="#b1e3f1" vector-effect="non-scaling-stroke" d="
  M 431.62 101.46
  C 426.89 106.18 418.75 107.72 412.35 108.81
  A 0.28 0.28 0.0 0 0 412.35 109.35
  C 418.75 110.49 427.02 112.20 431.62 116.81
  C 436.23 121.42 437.94 129.69 439.07 136.09
  A 0.28 0.28 0.0 0 0 439.62 136.09
  C 440.71 129.69 442.25 121.55 446.98 116.83
  C 451.71 112.10 459.85 110.57 466.24 109.48
  A 0.28 0.28 0.0 0 0 466.25 108.93
  C 459.85 107.80 451.58 106.08 446.97 101.47
  C 442.37 96.86 440.66 88.59 439.53 82.19
  A 0.28 0.28 0.0 0 0 438.98 82.20
  C 437.89 88.59 436.35 96.73 431.62 101.46"
/>
<path stroke="#bfecab" vector-effect="non-scaling-stroke" d="
  M 216.92 417.22
  Q 195.66 412.54 174.82 404.43
  C 154.43 396.50 134.43 385.64 118.40 370.59
  Q 93.99 347.69 86.66 314.38
  Q 83.01 297.75 84.26 281.98
  C 87.31 243.73 110.81 206.08 137.86 180.11
  Q 148.56 169.84 154.96 164.69
  Q 202.48 126.41 261.73 110.97
  Q 301.49 100.61 342.26 102.75
  Q 357.38 103.55 377.85 108.42
  Q 378.45 108.56 379.20 108.40
  A 0.17 0.17 0.0 0 0 379.23 108.08
  Q 345.94 94.73 309.00 93.32
  Q 268.97 91.78 229.51 102.22
  C 194.72 111.42 161.40 126.58 131.86 147.06
  C 95.52 172.26 63.12 207.24 47.43 248.89
  Q 40.54 267.18 39.13 282.02
  Q 33.73 338.72 73.28 377.27
  Q 79.07 382.91 88.02 389.12
  Q 97.59 395.76 104.17 398.81
  Q 120.75 406.48 125.70 408.07
  Q 155.92 417.77 187.35 418.82
  C 197.52 419.17 206.01 418.22 216.89 417.57
  A 0.18 0.18 0.0 0 0 216.92 417.22"
/>
<path stroke="#b1e3f1" vector-effect="non-scaling-stroke" d="
  M 140.64 225.95
  A 0.29 0.29 0.0 0 0 141.03 225.88
  Q 146.83 218.24 149.71 215.21
  Q 161.31 202.98 171.18 194.93
  Q 206.43 166.13 250.02 150.29
  Q 290.84 135.46 333.77 135.39
  Q 349.18 135.36 359.96 136.86
  Q 377.85 139.35 394.60 145.14
  C 423.79 155.23 451.27 176.18 462.69 205.31
  A 0.28 0.27 31.9 0 0 463.22 205.19
  C 459.33 163.63 427.74 134.68 389.36 123.13
  Q 365.64 115.99 343.52 115.44
  Q 317.05 114.79 292.49 120.00
  C 231.50 132.93 171.06 169.41 140.50 225.45
  A 0.38 0.37 -60.5 0 0 140.63 225.94
  L 140.64 225.95"
/>
<path stroke="#80a5d6" vector-effect="non-scaling-stroke" d="
  M 279.01 219.92
  A 0.40 0.40 0.0 0 0 278.88 219.39
  C 271.69 214.77 261.24 212.78 253.90 218.39
  C 247.52 223.28 245.87 232.40 252.03 238.24
  C 256.09 242.10 261.61 243.87 265.38 246.11
  C 266.87 247.00 268.45 248.29 268.27 250.36
  Q 267.98 253.73 264.22 254.48
  C 258.88 255.55 253.90 252.77 249.70 249.55
  A 0.33 0.32 -56.1 0 0 249.22 249.65
  L 244.47 257.88
  A 1.05 1.04 33.0 0 0 244.77 259.26
  C 253.11 265.29 265.31 267.24 274.09 261.84
  C 280.31 258.02 282.70 248.09 277.62 242.39
  C 273.52 237.81 268.61 236.03 263.39 233.62
  Q 261.19 232.61 259.23 230.54
  A 1.48 1.47 28.8 0 1 258.86 229.28
  C 260.14 222.05 270.09 225.60 274.18 228.07
  A 0.10 0.09 31.5 0 0 274.32 228.04
  L 279.01 219.92"
/>
<path stroke="#80a5d6" vector-effect="non-scaling-stroke" d="
  M 283.61 239.97
  Q 283.61 248.06 288.32 254.12
  C 296.93 265.18 312.39 268.55 324.99 260.96
  A 0.71 0.70 -28.9 0 0 325.26 260.04
  L 321.16 251.82
  A 0.55 0.55 0.0 0 0 320.41 251.58
  Q 311.23 256.48 302.77 252.11
  C 298.28 249.79 295.51 244.84 295.51 239.97
  C 295.51 235.10 298.28 230.15 302.77 227.83
  Q 311.23 223.46 320.41 228.36
  A 0.55 0.55 0.0 0 0 321.16 228.12
  L 325.26 219.90
  A 0.71 0.70 28.9 0 0 324.99 218.98
  C 312.38 211.39 296.92 214.76 288.32 225.83
  Q 283.61 231.89 283.61 239.97"
/>
<path stroke="#80a5d6" vector-effect="non-scaling-stroke" d="
  M 209.75 237.93
  Q 210.21 238.47 210.36 238.98
  Q 212.29 245.32 217.38 263.54
  A 0.78 0.78 0.0 0 0 218.13 264.11
  L 228.88 264.11
  A 1.15 1.14 8.1 0 0 229.98 263.29
  L 243.36 216.45
  A 0.50 0.49 7.9 0 0 242.88 215.82
  L 231.81 215.82
  A 0.69 0.68 6.3 0 0 231.14 216.35
  L 223.43 248.07
  A 0.54 0.53 44.9 0 1 222.39 248.07
  L 214.46 216.62
  A 1.05 1.04 82.9 0 0 213.45 215.83
  L 206.28 215.83
  A 1.19 1.18 -83.2 0 0 205.13 216.74
  L 197.51 248.08
  A 0.51 0.51 0.0 0 1 196.52 248.09
  L 188.54 216.44
  A 0.84 0.84 0.0 0 0 187.73 215.81
  L 176.88 215.81
  A 0.54 0.54 0.0 0 0 176.36 216.50
  L 189.79 263.64
  A 0.67 0.65 81.7 0 0 190.42 264.12
  L 201.65 264.12
  A 0.63 0.62 8.0 0 0 202.25 263.67
  L 209.59 237.96
  A 0.09 0.09 0.0 0 1 209.75 237.93"
/>
<path stroke="#aeaeae" vector-effect="non-scaling-stroke" d="
  M 180.30 293.56
  Q 180.31 297.97 180.43 303.04
  A 0.79 0.79 0.0 0 0 180.93 303.75
  Q 181.76 304.06 182.47 303.56
  A 0.82 0.80 73.0 0 0 182.82 302.89
  L 182.82 295.33
  A 0.65 0.65 0.0 0 1 183.51 294.68
  Q 185.14 294.78 186.94 294.77
  Q 188.75 294.77 190.38 294.67
  A 0.65 0.65 0.0 0 1 191.07 295.32
  L 191.09 302.88
  A 0.82 0.80 -73.2 0 0 191.44 303.55
  Q 192.15 304.04 192.98 303.73
  A 0.79 0.79 0.0 0 0 193.48 303.02
  Q 193.58 297.95 193.58 293.55
  Q 193.57 289.14 193.46 284.07
  A 0.79 0.79 0.0 0 0 192.95 283.36
  Q 192.12 283.05 191.41 283.55
  A 0.82 0.80 73.0 0 0 191.06 284.22
  L 191.06 291.78
  A 0.65 0.65 0.0 0 1 190.37 292.43
  Q 188.74 292.34 186.94 292.34
  Q 185.13 292.34 183.51 292.44
  A 0.65 0.65 0.0 0 1 182.81 291.79
  L 182.79 284.23
  A 0.82 0.80 -73.2 0 0 182.44 283.56
  Q 181.73 283.07 180.90 283.38
  A 0.79 0.79 0.0 0 0 180.40 284.09
  Q 180.30 289.16 180.30 293.56"
/>
<path stroke="#aeaeae" vector-effect="non-scaling-stroke" d="
  M 160.94 288.54
  Q 161.08 288.54 164.37 302.90
  Q 164.65 304.10 166.14 303.90
  A 1.09 1.08 1.8 0 0 167.07 303.04
  L 170.68 284.53
  A 0.73 0.73 0.0 0 0 170.10 283.67
  L 169.46 283.54
  A 0.89 0.88 -79.1 0 0 168.43 284.24
  L 165.64 298.55
  A 0.06 0.05 -48.2 0 1 165.53 298.56
  Q 163.91 292.59 162.36 285.15
  Q 162.01 283.50 160.95 283.50
  Q 159.89 283.50 159.54 285.14
  Q 157.96 292.58 156.32 298.54
  A 0.06 0.05 48.4 0 1 156.21 298.53
  L 153.47 284.21
  A 0.89 0.88 79.3 0 0 152.44 283.51
  L 151.80 283.64
  A 0.73 0.73 0.0 0 0 151.22 284.50
  L 154.77 303.02
  A 1.09 1.08 -1.6 0 0 155.69 303.88
  Q 157.18 304.09 157.46 302.89
  Q 160.81 288.54 160.94 288.54"
/>
<path stroke="#aeaeae" vector-effect="non-scaling-stroke" d="
  M 207.55 294.47
  L 213.28 294.45
  A 0.84 0.84 0.0 0 0 214.12 293.64
  L 214.14 293.34
  A 0.99 0.99 0.0 0 0 213.15 292.32
  L 207.59 292.37
  A 0.73 0.73 0.0 0 1 206.87 291.66
  L 206.78 286.64
  A 0.81 0.80 -1.3 0 1 207.57 285.82
  L 214.34 285.69
  A 0.84 0.83 -86.8 0 0 215.15 284.96
  L 215.20 284.69
  A 0.82 0.81 -85.6 0 0 214.40 283.75
  L 204.81 283.61
  A 0.50 0.50 0.0 0 0 204.30 284.11
  L 204.27 303.16
  A 0.65 0.64 89.6 0 0 204.91 303.80
  L 214.67 303.67
  A 0.75 0.75 0.0 0 0 215.41 302.94
  L 215.42 302.67
  A 0.85 0.84 -88.6 0 0 214.58 301.79
  L 207.54 301.68
  A 0.79 0.78 0.8 0 1 206.76 300.90
  L 206.87 295.14
  A 0.69 0.69 0.0 0 1 207.55 294.47"
/>
<path stroke="#aeaeae" vector-effect="non-scaling-stroke" d="
  M 230.99 298.58
  Q 233.48 298.58 233.56 298.59
  A 1.17 1.17 0.0 0 1 234.44 299.12
  Q 235.09 300.14 235.50 302.46
  A 1.74 1.73 0.8 0 0 236.88 303.87
  L 237.29 303.95
  A 0.84 0.84 0.0 0 0 238.25 302.86
  Q 235.50 294.41 232.67 285.60
  Q 231.99 283.46 230.99 283.46
  Q 229.96 283.46 229.28 285.60
  Q 226.47 294.42 223.73 302.87
  A 0.84 0.84 0.0 0 0 224.69 303.96
  L 225.10 303.88
  A 1.74 1.73 -0.8 0 0 226.48 302.47
  Q 226.89 300.15 227.54 299.13
  A 1.17 1.17 0.0 0 1 228.41 298.59
  Q 228.50 298.59 230.99 298.58"
/>
<path stroke="#aeaeae" vector-effect="non-scaling-stroke" d="
  M 282.58 298.06
  A 0.95 0.94 26.8 0 0 280.98 298.58
  Q 280.63 300.72 282.55 302.35
  Q 286.25 305.48 290.77 303.17
  C 293.45 301.81 293.26 297.41 291.93 295.25
  C 290.14 292.34 282.19 292.51 283.91 287.47
  C 284.82 284.79 289.22 285.03 290.14 287.51
  Q 290.75 289.14 290.75 289.15
  A 0.95 0.94 41.8 0 0 292.60 289.05
  C 293.64 281.73 279.89 281.28 281.28 289.98
  C 281.84 293.49 286.29 294.81 289.05 295.96
  A 1.82 1.80 87.0 0 1 289.98 296.81
  C 292.13 300.98 287.03 303.86 284.22 301.01
  C 283.39 300.17 283.36 298.82 282.58 298.06"
/>
<path stroke="#aeaeae" vector-effect="non-scaling-stroke" d="
  M 308.16 303.96
  Q 309.11 303.96 309.32 303.48
  A 0.86 0.83 57.4 0 0 309.38 303.16
  L 309.41 286.45
  A 0.66 0.66 0.0 0 1 310.07 285.79
  L 313.96 285.79
  A 0.84 0.83 0.0 0 0 314.80 284.96
  L 314.80 284.46
  A 0.79 0.79 0.0 0 0 314.02 283.67
  Q 311.28 283.65 308.08 283.63
  Q 304.88 283.67 302.14 283.71
  A 0.79 0.79 0.0 0 0 301.36 284.50
  L 301.36 285.00
  A 0.84 0.83 -0.4 0 0 302.21 285.83
  L 306.10 285.80
  A 0.66 0.66 0.0 0 1 306.76 286.46
  L 306.90 303.17
  A 0.86 0.83 -57.7 0 0 306.96 303.49
  Q 307.17 303.96 308.16 303.96"
/>
<path stroke="#aeaeae" vector-effect="non-scaling-stroke" d="
  M 330.25 298.55
  Q 332.74 298.55 332.83 298.56
  A 1.18 1.17 76.1 0 1 333.71 299.09
  Q 334.36 300.12 334.77 302.45
  A 1.74 1.74 0.0 0 0 336.15 303.86
  L 336.56 303.94
  A 0.85 0.85 0.0 0 0 337.53 302.85
  Q 334.78 294.37 331.95 285.53
  Q 331.26 283.38 330.26 283.38
  Q 329.23 283.38 328.54 285.53
  Q 325.71 294.37 322.96 302.85
  A 0.85 0.85 0.0 0 0 323.93 303.94
  L 324.34 303.86
  A 1.74 1.74 0.0 0 0 325.72 302.45
  Q 326.13 300.12 326.78 299.10
  A 1.18 1.17 -76.1 0 1 327.66 298.56
  Q 327.75 298.55 330.25 298.55"
/>
<path stroke="#aeaeae" vector-effect="non-scaling-stroke" d="
  M 352.15 304.00
  Q 353.10 303.99 353.31 303.52
  A 0.86 0.83 57.4 0 0 353.37 303.19
  L 353.39 286.45
  A 0.66 0.66 0.0 0 1 354.05 285.79
  L 357.95 285.78
  A 0.84 0.83 -0.0 0 0 358.79 284.95
  L 358.79 284.45
  A 0.79 0.79 0.0 0 0 358.01 283.66
  Q 355.26 283.64 352.05 283.62
  Q 348.85 283.67 346.10 283.70
  A 0.79 0.79 0.0 0 0 345.32 284.50
  L 345.32 285.00
  A 0.84 0.83 -0.4 0 0 346.17 285.83
  L 350.07 285.80
  A 0.66 0.66 0.0 0 1 350.74 286.46
  L 350.88 303.20
  A 0.86 0.83 -57.8 0 0 350.95 303.53
  Q 351.16 304.00 352.15 304.00"
/>
<path stroke="#aeaeae" vector-effect="non-scaling-stroke" d="
  M 371.50 294.50
  L 377.26 294.48
  A 0.84 0.84 0.0 0 0 378.10 293.67
  L 378.12 293.37
  A 0.99 0.99 0.0 0 0 377.12 292.34
  L 371.54 292.40
  A 0.73 0.73 0.0 0 1 370.82 291.69
  L 370.72 286.65
  A 0.82 0.81 -1.4 0 1 371.52 285.82
  L 378.31 285.69
  A 0.84 0.83 -86.8 0 0 379.13 284.95
  L 379.17 284.68
  A 0.82 0.82 0.0 0 0 378.37 283.74
  L 368.75 283.61
  A 0.50 0.50 0.0 0 0 368.24 284.11
  L 368.22 303.23
  A 0.65 0.64 89.6 0 0 368.86 303.88
  L 378.66 303.73
  A 0.75 0.75 0.0 0 0 379.40 303.01
  L 379.41 302.73
  A 0.85 0.85 0.0 0 0 378.57 301.85
  L 371.50 301.74
  A 0.79 0.78 0.8 0 1 370.72 300.95
  L 370.82 295.18
  A 0.69 0.69 0.0 0 1 371.50 294.50"
/>
<path stroke="#aeaeae" vector-effect="non-scaling-stroke" d="
  M 252.90 303.97
  Q 253.85 303.97 254.06 303.50
  A 0.86 0.83 57.5 0 0 254.12 303.17
  L 254.20 286.45
  A 0.66 0.66 0.0 0 1 254.86 285.80
  L 258.75 285.81
  A 0.84 0.83 0.1 0 0 259.59 284.98
  L 259.59 284.48
  A 0.79 0.79 0.0 0 0 258.81 283.69
  Q 256.07 283.66 252.87 283.63
  Q 249.67 283.66 246.93 283.69
  A 0.79 0.79 0.0 0 0 246.15 284.48
  L 246.15 284.98
  A 0.84 0.83 -0.2 0 0 246.99 285.81
  L 250.88 285.80
  A 0.66 0.66 0.0 0 1 251.55 286.46
  L 251.64 303.18
  A 0.86 0.83 -57.6 0 0 251.70 303.50
  Q 251.91 303.97 252.90 303.97"
/>
<path stroke="#aeaeae" vector-effect="non-scaling-stroke" d="
  M 207.84 341.75
  A 0.44 0.44 0.0 0 0 208.28 342.19
  L 217.94 342.19
  A 0.44 0.44 0.0 0 0 218.38 341.75
  L 218.38 340.62
  A 0.44 0.44 0.0 0 0 217.94 340.18
  L 210.68 340.18
  A 0.44 0.44 0.0 0 1 210.24 339.74
  L 210.24 322.38
  A 0.44 0.44 0.0 0 0 209.80 321.94
  L 208.28 321.94
  A 0.44 0.44 0.0 0 0 207.84 322.38
  L 207.84 341.75"
/>
<path stroke="#aeaeae" vector-effect="non-scaling-stroke" d="
  M 254.37 337.05
  Q 256.88 337.04 256.96 337.05
  A 1.18 1.17 75.9 0 1 257.85 337.58
  Q 258.50 338.60 258.92 340.94
  A 1.75 1.74 0.6 0 0 260.31 342.35
  L 260.73 342.43
  A 0.85 0.85 0.0 0 0 261.69 341.33
  Q 258.90 332.83 256.03 323.97
  Q 255.34 321.82 254.34 321.82
  Q 253.30 321.82 252.62 323.98
  Q 249.81 332.86 247.08 341.38
  A 0.85 0.85 0.0 0 0 248.05 342.48
  L 248.46 342.39
  A 1.75 1.74 -1.0 0 0 249.84 340.97
  Q 250.25 338.63 250.90 337.60
  A 1.18 1.17 -76.3 0 1 251.78 337.06
  Q 251.86 337.06 254.37 337.05"
/>
<path stroke="#aeaeae" vector-effect="non-scaling-stroke" d="
  M 276.62 332.64
  Q 280.06 339.43 281.53 341.87
  A 1.46 1.46 0.0 0 0 284.24 341.11
  L 284.24 322.85
  A 1.02 1.02 0.0 0 0 283.22 321.83
  L 282.73 321.83
  A 1.05 1.05 0.0 0 0 281.68 322.88
  L 281.68 336.65
  A 0.29 0.29 0.0 0 1 281.13 336.79
  Q 280.79 336.19 278.52 331.68
  Q 275.08 324.89 273.61 322.45
  A 1.46 1.46 0.0 0 0 270.90 323.21
  L 270.90 341.47
  A 1.02 1.02 0.0 0 0 271.92 342.49
  L 272.41 342.49
  A 1.05 1.05 0.0 0 0 273.46 341.44
  L 273.46 327.67
  A 0.29 0.29 0.0 0 1 274.00 327.53
  Q 274.34 328.13 276.62 332.64"
/>
<path stroke="#aeaeae" vector-effect="non-scaling-stroke" d="
  M 297.7165 322.7022
  A 0.78 0.78 0.0 0 0 296.9378 321.9209
  L 295.9778 321.9192
  A 0.78 0.78 0.0 0 0 295.1965 322.6978
  L 295.1635 341.5778
  A 0.78 0.78 0.0 0 0 295.9422 342.3591
  L 296.9022 342.3608
  A 0.78 0.78 0.0 0 0 297.6835 341.5822
  L 297.7165 322.7022"
/>
<path stroke="#aeaeae" vector-effect="non-scaling-stroke" d="
  M 311.17 327.17
  Q 311.92 328.58 318.56 341.46
  A 1.94 1.86 57.6 0 0 321.40 342.15
  Q 321.56 342.02 321.58 341.54
  Q 321.74 336.53 321.43 322.58
  A 0.81 0.80 -0.7 0 0 320.62 321.80
  L 320.20 321.80
  A 1.17 1.17 0.0 0 0 319.03 322.97
  L 319.03 336.16
  A 0.40 0.39 31.8 0 1 318.28 336.33
  Q 312.25 324.56 311.56 323.20
  Q 310.90 321.90 309.29 321.90
  A 0.92 0.91 -0.3 0 0 308.38 322.81
  L 308.38 341.61
  A 0.67 0.67 0.0 0 0 309.05 342.28
  L 310.12 342.28
  A 0.73 0.73 0.0 0 0 310.85 341.55
  L 310.85 327.25
  A 0.17 0.17 0.0 0 1 311.17 327.17"
/>
<path stroke="#aeaeae" vector-effect="non-scaling-stroke" d="
  M 344.35 332.25
  L 339.31 332.25
  A 0.80 0.80 0.0 0 0 338.51 333.03
  Q 338.49 334.78 341.27 334.30
  A 1.26 1.25 85.2 0 1 342.73 335.54
  L 342.73 338.21
  A 2.01 2.01 0.0 0 1 341.16 340.17
  C 333.53 341.87 334.45 333.80 334.74 329.01
  C 334.94 325.71 336.25 323.01 340.18 324.23
  C 341.57 324.67 342.34 326.43 343.03 327.78
  A 1.03 1.03 0.0 0 0 344.98 327.26
  C 344.81 323.92 342.19 321.95 338.85 321.85
  Q 332.87 321.67 332.20 328.14
  C 331.49 335.06 331.47 344.30 341.34 342.33
  C 346.13 341.38 345.24 336.95 345.12 333.00
  A 0.77 0.77 0.0 0 0 344.35 332.25"
/>
<path stroke="#aeaeae" vector-effect="non-scaling-stroke" d="
  M 184.83 332.25
  C 184.84 337.42 185.80 343.36 192.68 342.44
  Q 196.71 341.89 197.65 336.97
  A 0.94 0.94 0.0 0 0 196.95 335.89
  L 196.64 335.81
  A 0.89 0.88 15.0 0 0 195.59 336.41
  L 194.95 338.44
  A 1.57 1.27 77.6 0 1 194.76 338.82
  Q 193.09 341.15 190.22 340.46
  C 186.99 339.67 186.95 334.74 186.95 332.24
  C 186.94 329.75 186.96 324.81 190.19 324.02
  Q 193.06 323.32 194.74 325.64
  A 1.57 1.27 -77.8 0 1 194.93 326.02
  L 195.58 328.05
  A 0.89 0.88 -15.2 0 0 196.63 328.65
  L 196.94 328.56
  A 0.94 0.94 0.0 0 0 197.63 327.48
  Q 196.68 322.57 192.65 322.03
  C 185.77 321.13 184.83 327.07 184.83 332.25"
/>
<path stroke="#aeaeae" vector-effect="non-scaling-stroke" d="
  M 230.63 340.25
  A 0.41 0.41 0.0 0 1 230.22 339.84
  L 230.22 333.33
  A 0.41 0.41 0.0 0 1 230.63 332.92
  L 237.06 332.92
  A 0.41 0.41 0.0 0 0 237.47 332.51
  L 237.47 331.22
  A 0.41 0.41 0.0 0 0 237.06 330.81
  L 230.63 330.81
  A 0.41 0.41 0.0 0 1 230.22 330.40
  L 230.22 324.59
  A 0.41 0.41 0.0 0 1 230.63 324.18
  L 238.12 324.18
  A 0.41 0.41 0.0 0 0 238.53 323.77
  L 238.53 322.50
  A 0.41 0.41 0.0 0 0 238.12 322.09
  L 228.07 322.09
  A 0.41 0.41 0.0 0 0 227.66 322.50
  L 227.66 341.85
  A 0.41 0.41 0.0 0 0 228.07 342.26
  L 238.38 342.26
  A 0.41 0.41 0.0 0 0 238.79 341.85
  L 238.79 340.66
  A 0.41 0.41 0.0 0 0 238.38 340.25
  L 230.63 340.25"
/>
<path stroke="#aeaeae" vector-effect="non-scaling-stroke" d="
  M 228.43 295.89
  A 0.40 0.40 0.0 0 0 228.82 296.40
  L 233.18 296.36
  A 0.40 0.40 0.0 0 0 233.56 295.85
  L 231.31 288.10
  A 0.40 0.40 0.0 0 0 230.54 288.10
  L 228.43 295.89"
/>
<path stroke="#aeaeae" vector-effect="non-scaling-stroke" d="
  M 327.63 295.88
  A 0.35 0.35 0.0 0 0 327.96 296.34
  L 332.41 296.43
  A 0.35 0.35 0.0 0 0 332.75 295.99
  L 330.69 288.07
  A 0.35 0.35 0.0 0 0 330.02 288.05
  L 327.63 295.88"
/>
<path stroke="#aeaeae" vector-effect="non-scaling-stroke" d="
  M 251.77 334.23
  A 0.49 0.49 0.0 0 0 252.24 334.86
  L 256.35 334.87
  A 0.49 0.49 0.0 0 0 256.83 334.24
  L 254.78 327.10
  A 0.49 0.49 0.0 0 0 253.84 327.10
  L 251.77 334.23"
/>
</g>
<path fill="#ffffff" d="
  M 500.00 0.00
  L 500.00 500.00
  L 0.00 500.00
  L 0.00 0.00
  L 500.00 0.00
  Z
  M 385.96 39.13
  A 0.31 0.31 0.0 0 1 385.81 38.98
  L 381.33 29.34
  A 0.31 0.31 0.0 0 0 380.77 29.34
  L 376.29 38.98
  A 0.31 0.31 0.0 0 1 376.14 39.13
  L 366.50 43.61
  A 0.31 0.31 0.0 0 0 366.50 44.17
  L 376.14 48.65
  A 0.31 0.31 0.0 0 1 376.29 48.80
  L 380.77 58.44
  A 0.31 0.31 0.0 0 0 381.33 58.44
  L 385.81 48.80
  A 0.31 0.31 0.0 0 1 385.96 48.65
  L 395.60 44.17
  A 0.31 0.31 0.0 0 0 395.60 43.61
  L 385.96 39.13
  Z
  M 424.02 54.63
  Q 424.02 55.00 424.98 55.27
  Q 429.71 56.61 430.74 61.17
  A 0.46 0.46 0.0 0 0 431.63 61.21
  Q 433.37 56.09 438.44 54.95
  Q 438.61 54.91 438.61 54.62
  Q 438.61 54.33 438.44 54.29
  Q 433.37 53.15 431.62 48.04
  A 0.46 0.46 0.0 0 0 430.73 48.08
  Q 429.71 52.64 424.98 53.99
  Q 424.02 54.26 424.02 54.63
  Z
  M 431.62 101.46
  C 426.89 106.18 418.75 107.72 412.35 108.81
  A 0.28 0.28 0.0 0 0 412.35 109.35
  C 418.75 110.49 427.02 112.20 431.62 116.81
  C 436.23 121.42 437.94 129.69 439.07 136.09
  A 0.28 0.28 0.0 0 0 439.62 136.09
  C 440.71 129.69 442.25 121.55 446.98 116.83
  C 451.71 112.10 459.85 110.57 466.24 109.48
  A 0.28 0.28 0.0 0 0 466.25 108.93
  C 459.85 107.80 451.58 106.08 446.97 101.47
  C 442.37 96.86 440.66 88.59 439.53 82.19
  A 0.28 0.28 0.0 0 0 438.98 82.20
  C 437.89 88.59 436.35 96.73 431.62 101.46
  Z
  M 216.92 417.22
  Q 195.66 412.54 174.82 404.43
  C 154.43 396.50 134.43 385.64 118.40 370.59
  Q 93.99 347.69 86.66 314.38
  Q 83.01 297.75 84.26 281.98
  C 87.31 243.73 110.81 206.08 137.86 180.11
  Q 148.56 169.84 154.96 164.69
  Q 202.48 126.41 261.73 110.97
  Q 301.49 100.61 342.26 102.75
  Q 357.38 103.55 377.85 108.42
  Q 378.45 108.56 379.20 108.40
  A 0.17 0.17 0.0 0 0 379.23 108.08
  Q 345.94 94.73 309.00 93.32
  Q 268.97 91.78 229.51 102.22
  C 194.72 111.42 161.40 126.58 131.86 147.06
  C 95.52 172.26 63.12 207.24 47.43 248.89
  Q 40.54 267.18 39.13 282.02
  Q 33.73 338.72 73.28 377.27
  Q 79.07 382.91 88.02 389.12
  Q 97.59 395.76 104.17 398.81
  Q 120.75 406.48 125.70 408.07
  Q 155.92 417.77 187.35 418.82
  C 197.52 419.17 206.01 418.22 216.89 417.57
  A 0.18 0.18 0.0 0 0 216.92 417.22
  Z
  M 140.64 225.95
  A 0.29 0.29 0.0 0 0 141.03 225.88
  Q 146.83 218.24 149.71 215.21
  Q 161.31 202.98 171.18 194.93
  Q 206.43 166.13 250.02 150.29
  Q 290.84 135.46 333.77 135.39
  Q 349.18 135.36 359.96 136.86
  Q 377.85 139.35 394.60 145.14
  C 423.79 155.23 451.27 176.18 462.69 205.31
  A 0.28 0.27 31.9 0 0 463.22 205.19
  C 459.33 163.63 427.74 134.68 389.36 123.13
  Q 365.64 115.99 343.52 115.44
  Q 317.05 114.79 292.49 120.00
  C 231.50 132.93 171.06 169.41 140.50 225.45
  A 0.38 0.37 -60.5 0 0 140.63 225.94
  L 140.64 225.95
  Z
  M 279.01 219.92
  A 0.40 0.40 0.0 0 0 278.88 219.39
  C 271.69 214.77 261.24 212.78 253.90 218.39
  C 247.52 223.28 245.87 232.40 252.03 238.24
  C 256.09 242.10 261.61 243.87 265.38 246.11
  C 266.87 247.00 268.45 248.29 268.27 250.36
  Q 267.98 253.73 264.22 254.48
  C 258.88 255.55 253.90 252.77 249.70 249.55
  A 0.33 0.32 -56.1 0 0 249.22 249.65
  L 244.47 257.88
  A 1.05 1.04 33.0 0 0 244.77 259.26
  C 253.11 265.29 265.31 267.24 274.09 261.84
  C 280.31 258.02 282.70 248.09 277.62 242.39
  C 273.52 237.81 268.61 236.03 263.39 233.62
  Q 261.19 232.61 259.23 230.54
  A 1.48 1.47 28.8 0 1 258.86 229.28
  C 260.14 222.05 270.09 225.60 274.18 228.07
  A 0.10 0.09 31.5 0 0 274.32 228.04
  L 279.01 219.92
  Z
  M 283.61 239.97
  Q 283.61 248.06 288.32 254.12
  C 296.93 265.18 312.39 268.55 324.99 260.96
  A 0.71 0.70 -28.9 0 0 325.26 260.04
  L 321.16 251.82
  A 0.55 0.55 0.0 0 0 320.41 251.58
  Q 311.23 256.48 302.77 252.11
  C 298.28 249.79 295.51 244.84 295.51 239.97
  C 295.51 235.10 298.28 230.15 302.77 227.83
  Q 311.23 223.46 320.41 228.36
  A 0.55 0.55 0.0 0 0 321.16 228.12
  L 325.26 219.90
  A 0.71 0.70 28.9 0 0 324.99 218.98
  C 312.38 211.39 296.92 214.76 288.32 225.83
  Q 283.61 231.89 283.61 239.97
  Z
  M 209.75 237.93
  Q 210.21 238.47 210.36 238.98
  Q 212.29 245.32 217.38 263.54
  A 0.78 0.78 0.0 0 0 218.13 264.11
  L 228.88 264.11
  A 1.15 1.14 8.1 0 0 229.98 263.29
  L 243.36 216.45
  A 0.50 0.49 7.9 0 0 242.88 215.82
  L 231.81 215.82
  A 0.69 0.68 6.3 0 0 231.14 216.35
  L 223.43 248.07
  A 0.54 0.53 44.9 0 1 222.39 248.07
  L 214.46 216.62
  A 1.05 1.04 82.9 0 0 213.45 215.83
  L 206.28 215.83
  A 1.19 1.18 -83.2 0 0 205.13 216.74
  L 197.51 248.08
  A 0.51 0.51 0.0 0 1 196.52 248.09
  L 188.54 216.44
  A 0.84 0.84 0.0 0 0 187.73 215.81
  L 176.88 215.81
  A 0.54 0.54 0.0 0 0 176.36 216.50
  L 189.79 263.64
  A 0.67 0.65 81.7 0 0 190.42 264.12
  L 201.65 264.12
  A 0.63 0.62 8.0 0 0 202.25 263.67
  L 209.59 237.96
  A 0.09 0.09 0.0 0 1 209.75 237.93
  Z
  M 180.30 293.56
  Q 180.31 297.97 180.43 303.04
  A 0.79 0.79 0.0 0 0 180.93 303.75
  Q 181.76 304.06 182.47 303.56
  A 0.82 0.80 73.0 0 0 182.82 302.89
  L 182.82 295.33
  A 0.65 0.65 0.0 0 1 183.51 294.68
  Q 185.14 294.78 186.94 294.77
  Q 188.75 294.77 190.38 294.67
  A 0.65 0.65 0.0 0 1 191.07 295.32
  L 191.09 302.88
  A 0.82 0.80 -73.2 0 0 191.44 303.55
  Q 192.15 304.04 192.98 303.73
  A 0.79 0.79 0.0 0 0 193.48 303.02
  Q 193.58 297.95 193.58 293.55
  Q 193.57 289.14 193.46 284.07
  A 0.79 0.79 0.0 0 0 192.95 283.36
  Q 192.12 283.05 191.41 283.55
  A 0.82 0.80 73.0 0 0 191.06 284.22
  L 191.06 291.78
  A 0.65 0.65 0.0 0 1 190.37 292.43
  Q 188.74 292.34 186.94 292.34
  Q 185.13 292.34 183.51 292.44
  A 0.65 0.65 0.0 0 1 182.81 291.79
  L 182.79 284.23
  A 0.82 0.80 -73.2 0 0 182.44 283.56
  Q 181.73 283.07 180.90 283.38
  A 0.79 0.79 0.0 0 0 180.40 284.09
  Q 180.30 289.16 180.30 293.56
  Z
  M 160.94 288.54
  Q 161.08 288.54 164.37 302.90
  Q 164.65 304.10 166.14 303.90
  A 1.09 1.08 1.8 0 0 167.07 303.04
  L 170.68 284.53
  A 0.73 0.73 0.0 0 0 170.10 283.67
  L 169.46 283.54
  A 0.89 0.88 -79.1 0 0 168.43 284.24
  L 165.64 298.55
  A 0.06 0.05 -48.2 0 1 165.53 298.56
  Q 163.91 292.59 162.36 285.15
  Q 162.01 283.50 160.95 283.50
  Q 159.89 283.50 159.54 285.14
  Q 157.96 292.58 156.32 298.54
  A 0.06 0.05 48.4 0 1 156.21 298.53
  L 153.47 284.21
  A 0.89 0.88 79.3 0 0 152.44 283.51
  L 151.80 283.64
  A 0.73 0.73 0.0 0 0 151.22 284.50
  L 154.77 303.02
  A 1.09 1.08 -1.6 0 0 155.69 303.88
  Q 157.18 304.09 157.46 302.89
  Q 160.81 288.54 160.94 288.54
  Z
  M 207.55 294.47
  L 213.28 294.45
  A 0.84 0.84 0.0 0 0 214.12 293.64
  L 214.14 293.34
  A 0.99 0.99 0.0 0 0 213.15 292.32
  L 207.59 292.37
  A 0.73 0.73 0.0 0 1 206.87 291.66
  L 206.78 286.64
  A 0.81 0.80 -1.3 0 1 207.57 285.82
  L 214.34 285.69
  A 0.84 0.83 -86.8 0 0 215.15 284.96
  L 215.20 284.69
  A 0.82 0.81 -85.6 0 0 214.40 283.75
  L 204.81 283.61
  A 0.50 0.50 0.0 0 0 204.30 284.11
  L 204.27 303.16
  A 0.65 0.64 89.6 0 0 204.91 303.80
  L 214.67 303.67
  A 0.75 0.75 0.0 0 0 215.41 302.94
  L 215.42 302.67
  A 0.85 0.84 -88.6 0 0 214.58 301.79
  L 207.54 301.68
  A 0.79 0.78 0.8 0 1 206.76 300.90
  L 206.87 295.14
  A 0.69 0.69 0.0 0 1 207.55 294.47
  Z
  M 230.99 298.58
  Q 233.48 298.58 233.56 298.59
  A 1.17 1.17 0.0 0 1 234.44 299.12
  Q 235.09 300.14 235.50 302.46
  A 1.74 1.73 0.8 0 0 236.88 303.87
  L 237.29 303.95
  A 0.84 0.84 0.0 0 0 238.25 302.86
  Q 235.50 294.41 232.67 285.60
  Q 231.99 283.46 230.99 283.46
  Q 229.96 283.46 229.28 285.60
  Q 226.47 294.42 223.73 302.87
  A 0.84 0.84 0.0 0 0 224.69 303.96
  L 225.10 303.88
  A 1.74 1.73 -0.8 0 0 226.48 302.47
  Q 226.89 300.15 227.54 299.13
  A 1.17 1.17 0.0 0 1 228.41 298.59
  Q 228.50 298.59 230.99 298.58
  Z
  M 282.58 298.06
  A 0.95 0.94 26.8 0 0 280.98 298.58
  Q 280.63 300.72 282.55 302.35
  Q 286.25 305.48 290.77 303.17
  C 293.45 301.81 293.26 297.41 291.93 295.25
  C 290.14 292.34 282.19 292.51 283.91 287.47
  C 284.82 284.79 289.22 285.03 290.14 287.51
  Q 290.75 289.14 290.75 289.15
  A 0.95 0.94 41.8 0 0 292.60 289.05
  C 293.64 281.73 279.89 281.28 281.28 289.98
  C 281.84 293.49 286.29 294.81 289.05 295.96
  A 1.82 1.80 87.0 0 1 289.98 296.81
  C 292.13 300.98 287.03 303.86 284.22 301.01
  C 283.39 300.17 283.36 298.82 282.58 298.06
  Z
  M 308.16 303.96
  Q 309.11 303.96 309.32 303.48
  A 0.86 0.83 57.4 0 0 309.38 303.16
  L 309.41 286.45
  A 0.66 0.66 0.0 0 1 310.07 285.79
  L 313.96 285.79
  A 0.84 0.83 0.0 0 0 314.80 284.96
  L 314.80 284.46
  A 0.79 0.79 0.0 0 0 314.02 283.67
  Q 311.28 283.65 308.08 283.63
  Q 304.88 283.67 302.14 283.71
  A 0.79 0.79 0.0 0 0 301.36 284.50
  L 301.36 285.00
  A 0.84 0.83 -0.4 0 0 302.21 285.83
  L 306.10 285.80
  A 0.66 0.66 0.0 0 1 306.76 286.46
  L 306.90 303.17
  A 0.86 0.83 -57.7 0 0 306.96 303.49
  Q 307.17 303.96 308.16 303.96
  Z
  M 330.25 298.55
  Q 332.74 298.55 332.83 298.56
  A 1.18 1.17 76.1 0 1 333.71 299.09
  Q 334.36 300.12 334.77 302.45
  A 1.74 1.74 0.0 0 0 336.15 303.86
  L 336.56 303.94
  A 0.85 0.85 0.0 0 0 337.53 302.85
  Q 334.78 294.37 331.95 285.53
  Q 331.26 283.38 330.26 283.38
  Q 329.23 283.38 328.54 285.53
  Q 325.71 294.37 322.96 302.85
  A 0.85 0.85 0.0 0 0 323.93 303.94
  L 324.34 303.86
  A 1.74 1.74 0.0 0 0 325.72 302.45
  Q 326.13 300.12 326.78 299.10
  A 1.18 1.17 -76.1 0 1 327.66 298.56
  Q 327.75 298.55 330.25 298.55
  Z
  M 352.15 304.00
  Q 353.10 303.99 353.31 303.52
  A 0.86 0.83 57.4 0 0 353.37 303.19
  L 353.39 286.45
  A 0.66 0.66 0.0 0 1 354.05 285.79
  L 357.95 285.78
  A 0.84 0.83 -0.0 0 0 358.79 284.95
  L 358.79 284.45
  A 0.79 0.79 0.0 0 0 358.01 283.66
  Q 355.26 283.64 352.05 283.62
  Q 348.85 283.67 346.10 283.70
  A 0.79 0.79 0.0 0 0 345.32 284.50
  L 345.32 285.00
  A 0.84 0.83 -0.4 0 0 346.17 285.83
  L 350.07 285.80
  A 0.66 0.66 0.0 0 1 350.74 286.46
  L 350.88 303.20
  A 0.86 0.83 -57.8 0 0 350.95 303.53
  Q 351.16 304.00 352.15 304.00
  Z
  M 371.50 294.50
  L 377.26 294.48
  A 0.84 0.84 0.0 0 0 378.10 293.67
  L 378.12 293.37
  A 0.99 0.99 0.0 0 0 377.12 292.34
  L 371.54 292.40
  A 0.73 0.73 0.0 0 1 370.82 291.69
  L 370.72 286.65
  A 0.82 0.81 -1.4 0 1 371.52 285.82
  L 378.31 285.69
  A 0.84 0.83 -86.8 0 0 379.13 284.95
  L 379.17 284.68
  A 0.82 0.82 0.0 0 0 378.37 283.74
  L 368.75 283.61
  A 0.50 0.50 0.0 0 0 368.24 284.11
  L 368.22 303.23
  A 0.65 0.64 89.6 0 0 368.86 303.88
  L 378.66 303.73
  A 0.75 0.75 0.0 0 0 379.40 303.01
  L 379.41 302.73
  A 0.85 0.85 0.0 0 0 378.57 301.85
  L 371.50 301.74
  A 0.79 0.78 0.8 0 1 370.72 300.95
  L 370.82 295.18
  A 0.69 0.69 0.0 0 1 371.50 294.50
  Z
  M 252.90 303.97
  Q 253.85 303.97 254.06 303.50
  A 0.86 0.83 57.5 0 0 254.12 303.17
  L 254.20 286.45
  A 0.66 0.66 0.0 0 1 254.86 285.80
  L 258.75 285.81
  A 0.84 0.83 0.1 0 0 259.59 284.98
  L 259.59 284.48
  A 0.79 0.79 0.0 0 0 258.81 283.69
  Q 256.07 283.66 252.87 283.63
  Q 249.67 283.66 246.93 283.69
  A 0.79 0.79 0.0 0 0 246.15 284.48
  L 246.15 284.98
  A 0.84 0.83 -0.2 0 0 246.99 285.81
  L 250.88 285.80
  A 0.66 0.66 0.0 0 1 251.55 286.46
  L 251.64 303.18
  A 0.86 0.83 -57.6 0 0 251.70 303.50
  Q 251.91 303.97 252.90 303.97
  Z
  M 207.84 341.75
  A 0.44 0.44 0.0 0 0 208.28 342.19
  L 217.94 342.19
  A 0.44 0.44 0.0 0 0 218.38 341.75
  L 218.38 340.62
  A 0.44 0.44 0.0 0 0 217.94 340.18
  L 210.68 340.18
  A 0.44 0.44 0.0 0 1 210.24 339.74
  L 210.24 322.38
  A 0.44 0.44 0.0 0 0 209.80 321.94
  L 208.28 321.94
  A 0.44 0.44 0.0 0 0 207.84 322.38
  L 207.84 341.75
  Z
  M 254.37 337.05
  Q 256.88 337.04 256.96 337.05
  A 1.18 1.17 75.9 0 1 257.85 337.58
  Q 258.50 338.60 258.92 340.94
  A 1.75 1.74 0.6 0 0 260.31 342.35
  L 260.73 342.43
  A 0.85 0.85 0.0 0 0 261.69 341.33
  Q 258.90 332.83 256.03 323.97
  Q 255.34 321.82 254.34 321.82
  Q 253.30 321.82 252.62 323.98
  Q 249.81 332.86 247.08 341.38
  A 0.85 0.85 0.0 0 0 248.05 342.48
  L 248.46 342.39
  A 1.75 1.74 -1.0 0 0 249.84 340.97
  Q 250.25 338.63 250.90 337.60
  A 1.18 1.17 -76.3 0 1 251.78 337.06
  Q 251.86 337.06 254.37 337.05
  Z
  M 276.62 332.64
  Q 280.06 339.43 281.53 341.87
  A 1.46 1.46 0.0 0 0 284.24 341.11
  L 284.24 322.85
  A 1.02 1.02 0.0 0 0 283.22 321.83
  L 282.73 321.83
  A 1.05 1.05 0.0 0 0 281.68 322.88
  L 281.68 336.65
  A 0.29 0.29 0.0 0 1 281.13 336.79
  Q 280.79 336.19 278.52 331.68
  Q 275.08 324.89 273.61 322.45
  A 1.46 1.46 0.0 0 0 270.90 323.21
  L 270.90 341.47
  A 1.02 1.02 0.0 0 0 271.92 342.49
  L 272.41 342.49
  A 1.05 1.05 0.0 0 0 273.46 341.44
  L 273.46 327.67
  A 0.29 0.29 0.0 0 1 274.00 327.53
  Q 274.34 328.13 276.62 332.64
  Z
  M 297.7165 322.7022
  A 0.78 0.78 0.0 0 0 296.9378 321.9209
  L 295.9778 321.9192
  A 0.78 0.78 0.0 0 0 295.1965 322.6978
  L 295.1635 341.5778
  A 0.78 0.78 0.0 0 0 295.9422 342.3591
  L 296.9022 342.3608
  A 0.78 0.78 0.0 0 0 297.6835 341.5822
  L 297.7165 322.7022
  Z
  M 311.17 327.17
  Q 311.92 328.58 318.56 341.46
  A 1.94 1.86 57.6 0 0 321.40 342.15
  Q 321.56 342.02 321.58 341.54
  Q 321.74 336.53 321.43 322.58
  A 0.81 0.80 -0.7 0 0 320.62 321.80
  L 320.20 321.80
  A 1.17 1.17 0.0 0 0 319.03 322.97
  L 319.03 336.16
  A 0.40 0.39 31.8 0 1 318.28 336.33
  Q 312.25 324.56 311.56 323.20
  Q 310.90 321.90 309.29 321.90
  A 0.92 0.91 -0.3 0 0 308.38 322.81
  L 308.38 341.61
  A 0.67 0.67 0.0 0 0 309.05 342.28
  L 310.12 342.28
  A 0.73 0.73 0.0 0 0 310.85 341.55
  L 310.85 327.25
  A 0.17 0.17 0.0 0 1 311.17 327.17
  Z
  M 344.35 332.25
  L 339.31 332.25
  A 0.80 0.80 0.0 0 0 338.51 333.03
  Q 338.49 334.78 341.27 334.30
  A 1.26 1.25 85.2 0 1 342.73 335.54
  L 342.73 338.21
  A 2.01 2.01 0.0 0 1 341.16 340.17
  C 333.53 341.87 334.45 333.80 334.74 329.01
  C 334.94 325.71 336.25 323.01 340.18 324.23
  C 341.57 324.67 342.34 326.43 343.03 327.78
  A 1.03 1.03 0.0 0 0 344.98 327.26
  C 344.81 323.92 342.19 321.95 338.85 321.85
  Q 332.87 321.67 332.20 328.14
  C 331.49 335.06 331.47 344.30 341.34 342.33
  C 346.13 341.38 345.24 336.95 345.12 333.00
  A 0.77 0.77 0.0 0 0 344.35 332.25
  Z
  M 184.83 332.25
  C 184.84 337.42 185.80 343.36 192.68 342.44
  Q 196.71 341.89 197.65 336.97
  A 0.94 0.94 0.0 0 0 196.95 335.89
  L 196.64 335.81
  A 0.89 0.88 15.0 0 0 195.59 336.41
  L 194.95 338.44
  A 1.57 1.27 77.6 0 1 194.76 338.82
  Q 193.09 341.15 190.22 340.46
  C 186.99 339.67 186.95 334.74 186.95 332.24
  C 186.94 329.75 186.96 324.81 190.19 324.02
  Q 193.06 323.32 194.74 325.64
  A 1.57 1.27 -77.8 0 1 194.93 326.02
  L 195.58 328.05
  A 0.89 0.88 -15.2 0 0 196.63 328.65
  L 196.94 328.56
  A 0.94 0.94 0.0 0 0 197.63 327.48
  Q 196.68 322.57 192.65 322.03
  C 185.77 321.13 184.83 327.07 184.83 332.25
  Z
  M 230.63 340.25
  A 0.41 0.41 0.0 0 1 230.22 339.84
  L 230.22 333.33
  A 0.41 0.41 0.0 0 1 230.63 332.92
  L 237.06 332.92
  A 0.41 0.41 0.0 0 0 237.47 332.51
  L 237.47 331.22
  A 0.41 0.41 0.0 0 0 237.06 330.81
  L 230.63 330.81
  A 0.41 0.41 0.0 0 1 230.22 330.40
  L 230.22 324.59
  A 0.41 0.41 0.0 0 1 230.63 324.18
  L 238.12 324.18
  A 0.41 0.41 0.0 0 0 238.53 323.77
  L 238.53 322.50
  A 0.41 0.41 0.0 0 0 238.12 322.09
  L 228.07 322.09
  A 0.41 0.41 0.0 0 0 227.66 322.50
  L 227.66 341.85
  A 0.41 0.41 0.0 0 0 228.07 342.26
  L 238.38 342.26
  A 0.41 0.41 0.0 0 0 238.79 341.85
  L 238.79 340.66
  A 0.41 0.41 0.0 0 0 238.38 340.25
  L 230.63 340.25
  Z"
/>
<path fill="#62c7e3" d="
  M 385.96 39.13
  L 395.60 43.61
  A 0.31 0.31 0.0 0 1 395.60 44.17
  L 385.96 48.65
  A 0.31 0.31 0.0 0 0 385.81 48.80
  L 381.33 58.44
  A 0.31 0.31 0.0 0 1 380.77 58.44
  L 376.29 48.80
  A 0.31 0.31 0.0 0 0 376.14 48.65
  L 366.50 44.17
  A 0.31 0.31 0.0 0 1 366.50 43.61
  L 376.14 39.13
  A 0.31 0.31 0.0 0 0 376.29 38.98
  L 380.77 29.34
  A 0.31 0.31 0.0 0 1 381.33 29.34
  L 385.81 38.98
  A 0.31 0.31 0.0 0 0 385.96 39.13
  Z"
/>
<path fill="#7ed957" d="
  M 438.61 54.62
  Q 438.61 54.91 438.44 54.95
  Q 433.37 56.09 431.63 61.21
  A 0.46 0.46 0.0 0 1 430.74 61.17
  Q 429.71 56.61 424.98 55.27
  Q 424.02 55.00 424.02 54.63
  Q 424.02 54.26 424.98 53.99
  Q 429.71 52.64 430.73 48.08
  A 0.46 0.46 0.0 0 1 431.62 48.04
  Q 433.37 53.15 438.44 54.29
  Q 438.61 54.33 438.61 54.62
  Z"
/>
<path fill="#62c7e3" d="
  M 446.97 101.47
  C 451.58 106.08 459.85 107.80 466.25 108.93
  A 0.28 0.28 0.0 0 1 466.24 109.48
  C 459.85 110.57 451.71 112.10 446.98 116.83
  C 442.25 121.55 440.71 129.69 439.62 136.09
  A 0.28 0.28 0.0 0 1 439.07 136.09
  C 437.94 129.69 436.23 121.42 431.62 116.81
  C 427.02 112.20 418.75 110.49 412.35 109.35
  A 0.28 0.28 0.0 0 1 412.35 108.81
  C 418.75 107.72 426.89 106.18 431.62 101.46
  C 436.35 96.73 437.89 88.59 438.98 82.20
  A 0.28 0.28 0.0 0 1 439.53 82.19
  C 440.66 88.59 442.37 96.86 446.97 101.47
  Z"
/>
<path fill="#7ed957" d="
  M 216.92 417.22
  A 0.18 0.18 0.0 0 1 216.89 417.57
  C 206.01 418.22 197.52 419.17 187.35 418.82
  Q 155.92 417.77 125.70 408.07
  Q 120.75 406.48 104.17 398.81
  Q 97.59 395.76 88.02 389.12
  Q 79.07 382.91 73.28 377.27
  Q 33.73 338.72 39.13 282.02
  Q 40.54 267.18 47.43 248.89
  C 63.12 207.24 95.52 172.26 131.86 147.06
  C 161.40 126.58 194.72 111.42 229.51 102.22
  Q 268.97 91.78 309.00 93.32
  Q 345.94 94.73 379.23 108.08
  A 0.17 0.17 0.0 0 1 379.20 108.40
  Q 378.45 108.56 377.85 108.42
  Q 357.38 103.55 342.26 102.75
  Q 301.49 100.61 261.73 110.97
  Q 202.48 126.41 154.96 164.69
  Q 148.56 169.84 137.86 180.11
  C 110.81 206.08 87.31 243.73 84.26 281.98
  Q 83.01 297.75 86.66 314.38
  Q 93.99 347.69 118.40 370.59
  C 134.43 385.64 154.43 396.50 174.82 404.43
  Q 195.66 412.54 216.92 417.22
  Z"
/>
<path fill="#62c7e3" d="
  M 140.50 225.45
  C 171.06 169.41 231.50 132.93 292.49 120.00
  Q 317.05 114.79 343.52 115.44
  Q 365.64 115.99 389.36 123.13
  C 427.74 134.68 459.33 163.63 463.22 205.19
  A 0.28 0.27 31.9 0 1 462.69 205.31
  C 451.27 176.18 423.79 155.23 394.60 145.14
  Q 377.85 139.35 359.96 136.86
  Q 349.18 135.36 333.77 135.39
  Q 290.84 135.46 250.02 150.29
  Q 206.43 166.13 171.18 194.93
  Q 161.31 202.98 149.71 215.21
  Q 146.83 218.24 141.03 225.88
  A 0.29 0.29 0.0 0 1 140.64 225.95
  L 140.63 225.94
  A 0.38 0.37 -60.5 0 1 140.50 225.45
  Z"
/>
<path fill="#004aad" d="
  M 274.18 228.07
  C 270.09 225.60 260.14 222.05 258.86 229.28
  A 1.48 1.47 28.8 0 0 259.23 230.54
  Q 261.19 232.61 263.39 233.62
  C 268.61 236.03 273.52 237.81 277.62 242.39
  C 282.70 248.09 280.31 258.02 274.09 261.84
  C 265.31 267.24 253.11 265.29 244.77 259.26
  A 1.05 1.04 33.0 0 1 244.47 257.88
  L 249.22 249.65
  A 0.33 0.32 -56.1 0 1 249.70 249.55
  C 253.90 252.77 258.88 255.55 264.22 254.48
  Q 267.98 253.73 268.27 250.36
  C 268.45 248.29 266.87 247.00 265.38 246.11
  C 261.61 243.87 256.09 242.10 252.03 238.24
  C 245.87 232.40 247.52 223.28 253.90 218.39
  C 261.24 212.78 271.69 214.77 278.88 219.39
  A 0.40 0.40 0.0 0 1 279.01 219.92
  L 274.32 228.04
  A 0.10 0.09 31.5 0 1 274.18 228.07
  Z"
/>
<path fill="#004aad" d="
  M 295.51 239.97
  C 295.51 244.84 298.28 249.79 302.77 252.11
  Q 311.23 256.48 320.41 251.58
  A 0.55 0.55 0.0 0 1 321.16 251.82
  L 325.26 260.04
  A 0.71 0.70 -28.9 0 1 324.99 260.96
  C 312.39 268.55 296.93 265.18 288.32 254.12
  Q 283.61 248.06 283.61 239.97
  Q 283.61 231.89 288.32 225.83
  C 296.92 214.76 312.38 211.39 324.99 218.98
  A 0.71 0.70 28.9 0 1 325.26 219.90
  L 321.16 228.12
  A 0.55 0.55 0.0 0 1 320.41 228.36
  Q 311.23 223.46 302.77 227.83
  C 298.28 230.15 295.51 235.10 295.51 239.97
  Z"
/>
<path fill="#004aad" d="
  M 209.75 237.93
  A 0.09 0.09 0.0 0 0 209.59 237.96
  L 202.25 263.67
  A 0.63 0.62 8.0 0 1 201.65 264.12
  L 190.42 264.12
  A 0.67 0.65 81.7 0 1 189.79 263.64
  L 176.36 216.50
  A 0.54 0.54 0.0 0 1 176.88 215.81
  L 187.73 215.81
  A 0.84 0.84 0.0 0 1 188.54 216.44
  L 196.52 248.09
  A 0.51 0.51 0.0 0 0 197.51 248.08
  L 205.13 216.74
  A 1.19 1.18 -83.2 0 1 206.28 215.83
  L 213.45 215.83
  A 1.05 1.04 82.9 0 1 214.46 216.62
  L 222.39 248.07
  A 0.54 0.53 44.9 0 0 223.43 248.07
  L 231.14 216.35
  A 0.69 0.68 6.3 0 1 231.81 215.82
  L 242.88 215.82
  A 0.50 0.49 7.9 0 1 243.36 216.45
  L 229.98 263.29
  A 1.15 1.14 8.1 0 1 228.88 264.11
  L 218.13 264.11
  A 0.78 0.78 0.0 0 1 217.38 263.54
  Q 212.29 245.32 210.36 238.98
  Q 210.21 238.47 209.75 237.93
  Z"
/>
<path fill="#5d5d5d" d="
  M 186.94 292.34
  Q 188.74 292.34 190.37 292.43
  A 0.65 0.65 0.0 0 0 191.06 291.78
  L 191.06 284.22
  A 0.82 0.80 73.0 0 1 191.41 283.55
  Q 192.12 283.05 192.95 283.36
  A 0.79 0.79 0.0 0 1 193.46 284.07
  Q 193.57 289.14 193.58 293.55
  Q 193.58 297.95 193.48 303.02
  A 0.79 0.79 0.0 0 1 192.98 303.73
  Q 192.15 304.04 191.44 303.55
  A 0.82 0.80 -73.2 0 1 191.09 302.88
  L 191.07 295.32
  A 0.65 0.65 0.0 0 0 190.38 294.67
  Q 188.75 294.77 186.94 294.77
  Q 185.14 294.78 183.51 294.68
  A 0.65 0.65 0.0 0 0 182.82 295.33
  L 182.82 302.89
  A 0.82 0.80 73.0 0 1 182.47 303.56
  Q 181.76 304.06 180.93 303.75
  A 0.79 0.79 0.0 0 1 180.43 303.04
  Q 180.31 297.97 180.30 293.56
  Q 180.30 289.16 180.40 284.09
  A 0.79 0.79 0.0 0 1 180.90 283.38
  Q 181.73 283.07 182.44 283.56
  A 0.82 0.80 -73.2 0 1 182.79 284.23
  L 182.81 291.79
  A 0.65 0.65 0.0 0 0 183.51 292.44
  Q 185.13 292.34 186.94 292.34
  Z"
/>
<path fill="#5d5d5d" d="
  M 160.95 283.50
  Q 162.01 283.50 162.36 285.15
  Q 163.91 292.59 165.53 298.56
  A 0.06 0.05 -48.2 0 0 165.64 298.55
  L 168.43 284.24
  A 0.89 0.88 -79.1 0 1 169.46 283.54
  L 170.10 283.67
  A 0.73 0.73 0.0 0 1 170.68 284.53
  L 167.07 303.04
  A 1.09 1.08 1.8 0 1 166.14 303.90
  Q 164.65 304.10 164.37 302.90
  Q 161.08 288.54 160.94 288.54
  Q 160.81 288.54 157.46 302.89
  Q 157.18 304.09 155.69 303.88
  A 1.09 1.08 -1.6 0 1 154.77 303.02
  L 151.22 284.50
  A 0.73 0.73 0.0 0 1 151.80 283.64
  L 152.44 283.51
  A 0.89 0.88 79.3 0 1 153.47 284.21
  L 156.21 298.53
  A 0.06 0.05 48.4 0 0 156.32 298.54
  Q 157.96 292.58 159.54 285.14
  Q 159.89 283.50 160.95 283.50
  Z"
/>
<path fill="#5d5d5d" d="
  M 207.55 294.47
  A 0.69 0.69 0.0 0 0 206.87 295.14
  L 206.76 300.90
  A 0.79 0.78 0.8 0 0 207.54 301.68
  L 214.58 301.79
  A 0.85 0.84 -88.6 0 1 215.42 302.67
  L 215.41 302.94
  A 0.75 0.75 0.0 0 1 214.67 303.67
  L 204.91 303.80
  A 0.65 0.64 89.6 0 1 204.27 303.16
  L 204.30 284.11
  A 0.50 0.50 0.0 0 1 204.81 283.61
  L 214.40 283.75
  A 0.82 0.81 -85.6 0 1 215.20 284.69
  L 215.15 284.96
  A 0.84 0.83 -86.8 0 1 214.34 285.69
  L 207.57 285.82
  A 0.81 0.80 -1.3 0 0 206.78 286.64
  L 206.87 291.66
  A 0.73 0.73 0.0 0 0 207.59 292.37
  L 213.15 292.32
  A 0.99 0.99 0.0 0 1 214.14 293.34
  L 214.12 293.64
  A 0.84 0.84 0.0 0 1 213.28 294.45
  L 207.55 294.47
  Z"
/>
<path fill="#5d5d5d" d="
  M 230.99 283.46
  Q 231.99 283.46 232.67 285.60
  Q 235.50 294.41 238.25 302.86
  A 0.84 0.84 0.0 0 1 237.29 303.95
  L 236.88 303.87
  A 1.74 1.73 0.8 0 1 235.50 302.46
  Q 235.09 300.14 234.44 299.12
  A 1.17 1.17 0.0 0 0 233.56 298.59
  Q 233.48 298.58 230.99 298.58
  Q 228.50 298.59 228.41 298.59
  A 1.17 1.17 0.0 0 0 227.54 299.13
  Q 226.89 300.15 226.48 302.47
  A 1.74 1.73 -0.8 0 1 225.10 303.88
  L 224.69 303.96
  A 0.84 0.84 0.0 0 1 223.73 302.87
  Q 226.47 294.42 229.28 285.60
  Q 229.96 283.46 230.99 283.46
  Z
  M 228.43 295.89
  A 0.40 0.40 0.0 0 0 228.82 296.40
  L 233.18 296.36
  A 0.40 0.40 0.0 0 0 233.56 295.85
  L 231.31 288.10
  A 0.40 0.40 0.0 0 0 230.54 288.10
  L 228.43 295.89
  Z"
/>
<path fill="#5d5d5d" d="
  M 282.58 298.06
  C 283.36 298.82 283.39 300.17 284.22 301.01
  C 287.03 303.86 292.13 300.98 289.98 296.81
  A 1.82 1.80 87.0 0 0 289.05 295.96
  C 286.29 294.81 281.84 293.49 281.28 289.98
  C 279.89 281.28 293.64 281.73 292.60 289.05
  A 0.95 0.94 41.8 0 1 290.75 289.15
  Q 290.75 289.14 290.14 287.51
  C 289.22 285.03 284.82 284.79 283.91 287.47
  C 282.19 292.51 290.14 292.34 291.93 295.25
  C 293.26 297.41 293.45 301.81 290.77 303.17
  Q 286.25 305.48 282.55 302.35
  Q 280.63 300.72 280.98 298.58
  A 0.95 0.94 26.8 0 1 282.58 298.06
  Z"
/>
<path fill="#5d5d5d" d="
  M 308.08 283.63
  Q 311.28 283.65 314.02 283.67
  A 0.79 0.79 0.0 0 1 314.80 284.46
  L 314.80 284.96
  A 0.84 0.83 0.0 0 1 313.96 285.79
  L 310.07 285.79
  A 0.66 0.66 0.0 0 0 309.41 286.45
  L 309.38 303.16
  A 0.86 0.83 57.4 0 1 309.32 303.48
  Q 309.11 303.96 308.16 303.96
  Q 307.17 303.96 306.96 303.49
  A 0.86 0.83 -57.7 0 1 306.90 303.17
  L 306.76 286.46
  A 0.66 0.66 0.0 0 0 306.10 285.80
  L 302.21 285.83
  A 0.84 0.83 -0.4 0 1 301.36 285.00
  L 301.36 284.50
  A 0.79 0.79 0.0 0 1 302.14 283.71
  Q 304.88 283.67 308.08 283.63
  Z"
/>
<path fill="#5d5d5d" d="
  M 330.25 298.55
  Q 327.75 298.55 327.66 298.56
  A 1.18 1.17 -76.1 0 0 326.78 299.10
  Q 326.13 300.12 325.72 302.45
  A 1.74 1.74 0.0 0 1 324.34 303.86
  L 323.93 303.94
  A 0.85 0.85 0.0 0 1 322.96 302.85
  Q 325.71 294.37 328.54 285.53
  Q 329.23 283.38 330.26 283.38
  Q 331.26 283.38 331.95 285.53
  Q 334.78 294.37 337.53 302.85
  A 0.85 0.85 0.0 0 1 336.56 303.94
  L 336.15 303.86
  A 1.74 1.74 0.0 0 1 334.77 302.45
  Q 334.36 300.12 333.71 299.09
  A 1.18 1.17 76.1 0 0 332.83 298.56
  Q 332.74 298.55 330.25 298.55
  Z
  M 327.63 295.88
  A 0.35 0.35 0.0 0 0 327.96 296.34
  L 332.41 296.43
  A 0.35 0.35 0.0 0 0 332.75 295.99
  L 330.69 288.07
  A 0.35 0.35 0.0 0 0 330.02 288.05
  L 327.63 295.88
  Z"
/>
<path fill="#5d5d5d" d="
  M 352.15 304.00
  Q 351.16 304.00 350.95 303.53
  A 0.86 0.83 -57.8 0 1 350.88 303.20
  L 350.74 286.46
  A 0.66 0.66 0.0 0 0 350.07 285.80
  L 346.17 285.83
  A 0.84 0.83 -0.4 0 1 345.32 285.00
  L 345.32 284.50
  A 0.79 0.79 0.0 0 1 346.10 283.70
  Q 348.85 283.67 352.05 283.62
  Q 355.26 283.64 358.01 283.66
  A 0.79 0.79 0.0 0 1 358.79 284.45
  L 358.79 284.95
  A 0.84 0.83 -0.0 0 1 357.95 285.78
  L 354.05 285.79
  A 0.66 0.66 0.0 0 0 353.39 286.45
  L 353.37 303.19
  A 0.86 0.83 57.4 0 1 353.31 303.52
  Q 353.10 303.99 352.15 304.00
  Z"
/>
<path fill="#5d5d5d" d="
  M 371.50 294.50
  A 0.69 0.69 0.0 0 0 370.82 295.18
  L 370.72 300.95
  A 0.79 0.78 0.8 0 0 371.50 301.74
  L 378.57 301.85
  A 0.85 0.85 0.0 0 1 379.41 302.73
  L 379.40 303.01
  A 0.75 0.75 0.0 0 1 378.66 303.73
  L 368.86 303.88
  A 0.65 0.64 89.6 0 1 368.22 303.23
  L 368.24 284.11
  A 0.50 0.50 0.0 0 1 368.75 283.61
  L 378.37 283.74
  A 0.82 0.82 0.0 0 1 379.17 284.68
  L 379.13 284.95
  A 0.84 0.83 -86.8 0 1 378.31 285.69
  L 371.52 285.82
  A 0.82 0.81 -1.4 0 0 370.72 286.65
  L 370.82 291.69
  A 0.73 0.73 0.0 0 0 371.54 292.40
  L 377.12 292.34
  A 0.99 0.99 0.0 0 1 378.12 293.37
  L 378.10 293.67
  A 0.84 0.84 0.0 0 1 377.26 294.48
  L 371.50 294.50
  Z"
/>
<path fill="#5d5d5d" d="
  M 252.90 303.97
  Q 251.91 303.97 251.70 303.50
  A 0.86 0.83 -57.6 0 1 251.64 303.18
  L 251.55 286.46
  A 0.66 0.66 0.0 0 0 250.88 285.80
  L 246.99 285.81
  A 0.84 0.83 -0.2 0 1 246.15 284.98
  L 246.15 284.48
  A 0.79 0.79 0.0 0 1 246.93 283.69
  Q 249.67 283.66 252.87 283.63
  Q 256.07 283.66 258.81 283.69
  A 0.79 0.79 0.0 0 1 259.59 284.48
  L 259.59 284.98
  A 0.84 0.83 0.1 0 1 258.75 285.81
  L 254.86 285.80
  A 0.66 0.66 0.0 0 0 254.20 286.45
  L 254.12 303.17
  A 0.86 0.83 57.5 0 1 254.06 303.50
  Q 253.85 303.97 252.90 303.97
  Z"
/>
<path fill="#ffffff" d="
  M 228.43 295.89
  L 230.54 288.10
  A 0.40 0.40 0.0 0 1 231.31 288.10
  L 233.56 295.85
  A 0.40 0.40 0.0 0 1 233.18 296.36
  L 228.82 296.40
  A 0.40 0.40 0.0 0 1 228.43 295.89
  Z"
/>
<path fill="#ffffff" d="
  M 327.63 295.88
  L 330.02 288.05
  A 0.35 0.35 0.0 0 1 330.69 288.07
  L 332.75 295.99
  A 0.35 0.35 0.0 0 1 332.41 296.43
  L 327.96 296.34
  A 0.35 0.35 0.0 0 1 327.63 295.88
  Z"
/>
<path fill="#5d5d5d" d="
  M 207.84 341.75
  L 207.84 322.38
  A 0.44 0.44 0.0 0 1 208.28 321.94
  L 209.80 321.94
  A 0.44 0.44 0.0 0 1 210.24 322.38
  L 210.24 339.74
  A 0.44 0.44 0.0 0 0 210.68 340.18
  L 217.94 340.18
  A 0.44 0.44 0.0 0 1 218.38 340.62
  L 218.38 341.75
  A 0.44 0.44 0.0 0 1 217.94 342.19
  L 208.28 342.19
  A 0.44 0.44 0.0 0 1 207.84 341.75
  Z"
/>
<path fill="#5d5d5d" d="
  M 254.37 337.05
  Q 251.86 337.06 251.78 337.06
  A 1.18 1.17 -76.3 0 0 250.90 337.60
  Q 250.25 338.63 249.84 340.97
  A 1.75 1.74 -1.0 0 1 248.46 342.39
  L 248.05 342.48
  A 0.85 0.85 0.0 0 1 247.08 341.38
  Q 249.81 332.86 252.62 323.98
  Q 253.30 321.82 254.34 321.82
  Q 255.34 321.82 256.03 323.97
  Q 258.90 332.83 261.69 341.33
  A 0.85 0.85 0.0 0 1 260.73 342.43
  L 260.31 342.35
  A 1.75 1.74 0.6 0 1 258.92 340.94
  Q 258.50 338.60 257.85 337.58
  A 1.18 1.17 75.9 0 0 256.96 337.05
  Q 256.88 337.04 254.37 337.05
  Z
  M 251.77 334.23
  A 0.49 0.49 0.0 0 0 252.24 334.86
  L 256.35 334.87
  A 0.49 0.49 0.0 0 0 256.83 334.24
  L 254.78 327.10
  A 0.49 0.49 0.0 0 0 253.84 327.10
  L 251.77 334.23
  Z"
/>
<path fill="#5d5d5d" d="
  M 276.62 332.64
  Q 274.34 328.13 274.00 327.53
  A 0.29 0.29 0.0 0 0 273.46 327.67
  L 273.46 341.44
  A 1.05 1.05 0.0 0 1 272.41 342.49
  L 271.92 342.49
  A 1.02 1.02 0.0 0 1 270.90 341.47
  L 270.90 323.21
  A 1.46 1.46 0.0 0 1 273.61 322.45
  Q 275.08 324.89 278.52 331.68
  Q 280.79 336.19 281.13 336.79
  A 0.29 0.29 0.0 0 0 281.68 336.65
  L 281.68 322.88
  A 1.05 1.05 0.0 0 1 282.73 321.83
  L 283.22 321.83
  A 1.02 1.02 0.0 0 1 284.24 322.85
  L 284.24 341.11
  A 1.46 1.46 0.0 0 1 281.53 341.87
  Q 280.06 339.43 276.62 332.64
  Z"
/>
<rect fill="#5d5d5d" x="-1.26" y="-10.22" transform="translate(296.44,332.14) rotate(0.1)" width="2.52" height="20.44" rx="0.78"/>
<path fill="#5d5d5d" d="
  M 311.17 327.17
  A 0.17 0.17 0.0 0 0 310.85 327.25
  L 310.85 341.55
  A 0.73 0.73 0.0 0 1 310.12 342.28
  L 309.05 342.28
  A 0.67 0.67 0.0 0 1 308.38 341.61
  L 308.38 322.81
  A 0.92 0.91 -0.3 0 1 309.29 321.90
  Q 310.90 321.90 311.56 323.20
  Q 312.25 324.56 318.28 336.33
  A 0.40 0.39 31.8 0 0 319.03 336.16
  L 319.03 322.97
  A 1.17 1.17 0.0 0 1 320.20 321.80
  L 320.62 321.80
  A 0.81 0.80 -0.7 0 1 321.43 322.58
  Q 321.74 336.53 321.58 341.54
  Q 321.56 342.02 321.40 342.15
  A 1.94 1.86 57.6 0 1 318.56 341.46
  Q 311.92 328.58 311.17 327.17
  Z"
/>
<path fill="#5d5d5d" d="
  M 345.12 333.00
  C 345.24 336.95 346.13 341.38 341.34 342.33
  C 331.47 344.30 331.49 335.06 332.20 328.14
  Q 332.87 321.67 338.85 321.85
  C 342.19 321.95 344.81 323.92 344.98 327.26
  A 1.03 1.03 0.0 0 1 343.03 327.78
  C 342.34 326.43 341.57 324.67 340.18 324.23
  C 336.25 323.01 334.94 325.71 334.74 329.01
  C 334.45 333.80 333.53 341.87 341.16 340.17
  A 2.01 2.01 0.0 0 0 342.73 338.21
  L 342.73 335.54
  A 1.26 1.25 85.2 0 0 341.27 334.30
  Q 338.49 334.78 338.51 333.03
  A 0.80 0.80 0.0 0 1 339.31 332.25
  L 344.35 332.25
  A 0.77 0.77 0.0 0 1 345.12 333.00
  Z"
/>
<path fill="#5d5d5d" d="
  M 186.95 332.24
  C 186.95 334.74 186.99 339.67 190.22 340.46
  Q 193.09 341.15 194.76 338.82
  A 1.57 1.27 77.6 0 0 194.95 338.44
  L 195.59 336.41
  A 0.89 0.88 15.0 0 1 196.64 335.81
  L 196.95 335.89
  A 0.94 0.94 0.0 0 1 197.65 336.97
  Q 196.71 341.89 192.68 342.44
  C 185.80 343.36 184.84 337.42 184.83 332.25
  C 184.83 327.07 185.77 321.13 192.65 322.03
  Q 196.68 322.57 197.63 327.48
  A 0.94 0.94 0.0 0 1 196.94 328.56
  L 196.63 328.65
  A 0.89 0.88 -15.2 0 1 195.58 328.05
  L 194.93 326.02
  A 1.57 1.27 -77.8 0 0 194.74 325.64
  Q 193.06 323.32 190.19 324.02
  C 186.96 324.81 186.94 329.75 186.95 332.24
  Z"
/>
<path fill="#5d5d5d" d="
  M 230.63 340.25
  L 238.38 340.25
  A 0.41 0.41 0.0 0 1 238.79 340.66
  L 238.79 341.85
  A 0.41 0.41 0.0 0 1 238.38 342.26
  L 228.07 342.26
  A 0.41 0.41 0.0 0 1 227.66 341.85
  L 227.66 322.50
  A 0.41 0.41 0.0 0 1 228.07 322.09
  L 238.12 322.09
  A 0.41 0.41 0.0 0 1 238.53 322.50
  L 238.53 323.77
  A 0.41 0.41 0.0 0 1 238.12 324.18
  L 230.63 324.18
  A 0.41 0.41 0.0 0 0 230.22 324.59
  L 230.22 330.40
  A 0.41 0.41 0.0 0 0 230.63 330.81
  L 237.06 330.81
  A 0.41 0.41 0.0 0 1 237.47 331.22
  L 237.47 332.51
  A 0.41 0.41 0.0 0 1 237.06 332.92
  L 230.63 332.92
  A 0.41 0.41 0.0 0 0 230.22 333.33
  L 230.22 339.84
  A 0.41 0.41 0.0 0 0 230.63 340.25
  Z"
/>
<path fill="#ffffff" d="
  M 251.77 334.23
  L 253.84 327.10
  A 0.49 0.49 0.0 0 1 254.78 327.10
  L 256.83 334.24
  A 0.49 0.49 0.0 0 1 256.35 334.87
  L 252.24 334.86
  A 0.49 0.49 0.0 0 1 251.77 334.23
  Z"
/>
</svg>